<svg xmlns="http://www.w3.org/2000/svg" width="1440" height="900"><path d="M753,424L692,514L747,503Z" fill="#3eb1c4" stroke="#3eb1c4" stroke-width="1.51"/><path d="M753,424L668,422L692,514Z" fill="#44b6c4" stroke="#44b6c4" stroke-width="1.51"/><path d="M692,514L678,551L747,503Z" fill="#3eaec3" stroke="#3eaec3" stroke-width="1.51"/><path d="M593,470L678,551L692,514Z" fill="#49b2c2" stroke="#49b2c2" stroke-width="1.51"/><path d="M668,422L593,470L692,514Z" fill="#4db7c3" stroke="#4db7c3" stroke-width="1.51"/><path d="M753,424L668,326L668,422Z" fill="#55bbc2" stroke="#55bbc2" stroke-width="1.51"/><path d="M668,422L578,402L593,470Z" fill="#58bdc2" stroke="#58bdc2" stroke-width="1.51"/><path d="M866,472L847,417L753,424Z" fill="#3faec3" stroke="#3faec3" stroke-width="1.51"/><path d="M753,424L789,336L668,326Z" fill="#56bbc2" stroke="#56bbc2" stroke-width="1.51"/><path d="M590,343L578,402L668,422Z" fill="#62c0c0" stroke="#62c0c0" stroke-width="1.51"/><path d="M678,551L757,598L747,503Z" fill="#37a9c3" stroke="#37a9c3" stroke-width="1.51"/><path d="M747,503L866,472L753,424Z" fill="#3baec4" stroke="#3baec4" stroke-width="1.51"/><path d="M847,417L789,336L753,424Z" fill="#4cb4c2" stroke="#4cb4c2" stroke-width="1.51"/><path d="M874,556L866,472L747,503Z" fill="#34a5c3" stroke="#34a5c3" stroke-width="1.51"/><path d="M668,326L590,343L668,422Z" fill="#63c0c0" stroke="#63c0c0" stroke-width="1.51"/><path d="M678,551L686,647L757,598Z" fill="#36a4c2" stroke="#36a4c2" stroke-width="1.51"/><path d="M565,600L686,647L678,551Z" fill="#44a7c1" stroke="#44a7c1" stroke-width="1.51"/><path d="M757,598L874,556L747,503Z" fill="#32a3c2" stroke="#32a3c2" stroke-width="1.51"/><path d="M827,657L874,556L757,598Z" fill="#2a9ac1" stroke="#2a9ac1" stroke-width="1.51"/><path d="M593,470L565,600L678,551Z" fill="#4eb0c1" stroke="#4eb0c1" stroke-width="1.51"/><path d="M483,518L565,600L593,470Z" fill="#59b5c0" stroke="#59b5c0" stroke-width="1.51"/><path d="M847,417L838,294L789,336Z" fill="#55b4c0" stroke="#55b4c0" stroke-width="1.51"/><path d="M789,336L679,248L668,326Z" fill="#65c1c0" stroke="#65c1c0" stroke-width="1.51"/><path d="M910,336L838,294L847,417Z" fill="#53b1c0" stroke="#53b1c0" stroke-width="1.51"/><path d="M668,326L679,248L590,343Z" fill="#6dc5be" stroke="#6dc5be" stroke-width="1.51"/><path d="M768,223L679,248L789,336Z" fill="#6dc2bf" stroke="#6dc2bf" stroke-width="1.51"/><path d="M578,402L499,378L593,470Z" fill="#64c1c0" stroke="#64c1c0" stroke-width="1.51"/><path d="M590,343L499,378L578,402Z" fill="#6cc4bf" stroke="#6cc4bf" stroke-width="1.51"/><path d="M508,298L499,378L590,343Z" fill="#75c8bd" stroke="#75c8bd" stroke-width="1.51"/><path d="M791,687L827,657L757,598Z" fill="#2f95be" stroke="#2f95be" stroke-width="1.51"/><path d="M866,472L933,397L847,417Z" fill="#3ea9c2" stroke="#3ea9c2" stroke-width="1.51"/><path d="M940,507L933,397L866,472Z" fill="#34a4c2" stroke="#34a4c2" stroke-width="1.51"/><path d="M499,378L483,518L593,470Z" fill="#61c0c0" stroke="#61c0c0" stroke-width="1.51"/><path d="M874,556L940,507L866,472Z" fill="#2f9fc2" stroke="#2f9fc2" stroke-width="1.51"/><path d="M923,572L940,507L874,556Z" fill="#299ac1" stroke="#299ac1" stroke-width="1.51"/><path d="M933,397L910,336L847,417Z" fill="#49acc1" stroke="#49acc1" stroke-width="1.51"/><path d="M827,657L923,572L874,556Z" fill="#2596c1" stroke="#2596c1" stroke-width="1.51"/><path d="M686,647L791,687L757,598Z" fill="#339abf" stroke="#339abf" stroke-width="1.51"/><path d="M823,235L768,223L838,294Z" fill="#70bebe" stroke="#70bebe" stroke-width="1.51"/><path d="M838,294L768,223L789,336Z" fill="#66bcbf" stroke="#66bcbf" stroke-width="1.51"/><path d="M483,518L482,554L565,600Z" fill="#5db4be" stroke="#5db4be" stroke-width="1.51"/><path d="M931,240L823,235L838,294Z" fill="#6cb8be" stroke="#6cb8be" stroke-width="1.51"/><path d="M565,600L582,684L686,647Z" fill="#4ba1bd" stroke="#4ba1bd" stroke-width="1.51"/><path d="M686,647L737,751L791,687Z" fill="#3591bb" stroke="#3591bb" stroke-width="1.51"/><path d="M530,652L582,684L565,600Z" fill="#53a4bb" stroke="#53a4bb" stroke-width="1.51"/><path d="M499,378L427,482L483,518Z" fill="#6cc2bf" stroke="#6cc2bf" stroke-width="1.51"/><path d="M564,211L508,298L590,343Z" fill="#7dccbc" stroke="#7dccbc" stroke-width="1.51"/><path d="M482,554L530,652L565,600Z" fill="#57adbe" stroke="#57adbe" stroke-width="1.51"/><path d="M483,518L438,561L482,554Z" fill="#67b8be" stroke="#67b8be" stroke-width="1.51"/><path d="M482,554L438,561L530,652Z" fill="#60b1be" stroke="#60b1be" stroke-width="1.51"/><path d="M430,401L427,482L499,378Z" fill="#75c7be" stroke="#75c7be" stroke-width="1.51"/><path d="M445,292L430,401L499,378Z" fill="#7ecbbd" stroke="#7ecbbd" stroke-width="1.51"/><path d="M679,248L564,211L590,343Z" fill="#7ccabd" stroke="#7ccabd" stroke-width="1.51"/><path d="M508,298L445,292L499,378Z" fill="#7fccbb" stroke="#7fccbb" stroke-width="1.51"/><path d="M574,150L564,211L679,248Z" fill="#8dd0bb" stroke="#8dd0bb" stroke-width="1.51"/><path d="M427,482L438,561L483,518Z" fill="#6cbcbe" stroke="#6cbcbe" stroke-width="1.51"/><path d="M582,684L691,750L686,647Z" fill="#4497b9" stroke="#4497b9" stroke-width="1.51"/><path d="M691,750L737,751L686,647Z" fill="#3a90b9" stroke="#3a90b9" stroke-width="1.51"/><path d="M848,768L946,674L827,657Z" fill="#2986b9" stroke="#2986b9" stroke-width="1.51"/><path d="M827,657L946,674L923,572Z" fill="#248ebe" stroke="#248ebe" stroke-width="1.51"/><path d="M923,572L1002,503L940,507Z" fill="#2a97c0" stroke="#2a97c0" stroke-width="1.51"/><path d="M940,507L1002,416L933,397Z" fill="#37a1c1" stroke="#37a1c1" stroke-width="1.51"/><path d="M933,397L1007,305L910,336Z" fill="#50a9be" stroke="#50a9be" stroke-width="1.51"/><path d="M1031,580L1002,503L923,572Z" fill="#2791be" stroke="#2791be" stroke-width="1.51"/><path d="M1002,503L1002,416L940,507Z" fill="#329bbf" stroke="#329bbf" stroke-width="1.51"/><path d="M910,336L931,240L838,294Z" fill="#60b3be" stroke="#60b3be" stroke-width="1.51"/><path d="M564,211L484,259L508,298Z" fill="#89d0bb" stroke="#89d0bb" stroke-width="1.51"/><path d="M768,223L701,151L679,248Z" fill="#80cabe" stroke="#80cabe" stroke-width="1.51"/><path d="M823,235L765,160L768,223Z" fill="#7ec4be" stroke="#7ec4be" stroke-width="1.51"/><path d="M861,174L765,160L823,235Z" fill="#80c2bd" stroke="#80c2bd" stroke-width="1.51"/><path d="M765,160L701,151L768,223Z" fill="#87cabe" stroke="#87cabe" stroke-width="1.51"/><path d="M1007,305L931,240L910,336Z" fill="#5cadbe" stroke="#5cadbe" stroke-width="1.51"/><path d="M484,259L445,292L508,298Z" fill="#88d0ba" stroke="#88d0ba" stroke-width="1.51"/><path d="M848,768L827,657L791,687Z" fill="#2e89b9" stroke="#2e89b9" stroke-width="1.51"/><path d="M931,240L861,174L823,235Z" fill="#77bbbd" stroke="#77bbbd" stroke-width="1.51"/><path d="M1002,416L1007,305L933,397Z" fill="#4aa3be" stroke="#4aa3be" stroke-width="1.51"/><path d="M931,240L911,146L861,174Z" fill="#7ebcbc" stroke="#7ebcbc" stroke-width="1.51"/><path d="M1087,384L1007,305L1002,416Z" fill="#4c9dba" stroke="#4c9dba" stroke-width="1.51"/><path d="M737,751L848,768L791,687Z" fill="#3186b7" stroke="#3186b7" stroke-width="1.51"/><path d="M751,849L848,768L737,751Z" fill="#357fb3" stroke="#357fb3" stroke-width="1.51"/><path d="M582,684L570,768L691,750Z" fill="#4b91b6" stroke="#4b91b6" stroke-width="1.51"/><path d="M691,750L693,844L737,751Z" fill="#3c85b4" stroke="#3c85b4" stroke-width="1.51"/><path d="M510,774L570,768L582,684Z" fill="#5493b4" stroke="#5493b4" stroke-width="1.51"/><path d="M510,774L582,684L530,652Z" fill="#569ab7" stroke="#569ab7" stroke-width="1.51"/><path d="M484,259L446,247L445,292Z" fill="#90d3ba" stroke="#90d3ba" stroke-width="1.51"/><path d="M529,150L446,247L484,259Z" fill="#97d5b9" stroke="#97d5b9" stroke-width="1.51"/><path d="M701,151L574,150L679,248Z" fill="#8dcfbc" stroke="#8dcfbc" stroke-width="1.51"/><path d="M331,417L427,482L430,401Z" fill="#7ec9be" stroke="#7ec9be" stroke-width="1.51"/><path d="M529,150L484,259L564,211Z" fill="#95d4ba" stroke="#95d4ba" stroke-width="1.51"/><path d="M1117,491L1087,384L1002,416Z" fill="#3c94ba" stroke="#3c94ba" stroke-width="1.51"/><path d="M946,674L1031,580L923,572Z" fill="#1f8cbe" stroke="#1f8cbe" stroke-width="1.51"/><path d="M574,150L529,150L564,211Z" fill="#9bd6b9" stroke="#9bd6b9" stroke-width="1.51"/><path d="M438,561L405,668L530,652Z" fill="#65adbc" stroke="#65adbc" stroke-width="1.51"/><path d="M352,569L405,668L438,561Z" fill="#72b5bd" stroke="#72b5bd" stroke-width="1.51"/><path d="M352,569L438,561L427,482Z" fill="#74bcbe" stroke="#74bcbe" stroke-width="1.51"/><path d="M570,768L693,844L691,750Z" fill="#4687b3" stroke="#4687b3" stroke-width="1.51"/><path d="M405,668L510,774L530,652Z" fill="#609eb6" stroke="#609eb6" stroke-width="1.51"/><path d="M839,61L763,59L765,160Z" fill="#95cbbc" stroke="#95cbbc" stroke-width="1.51"/><path d="M763,59L668,66L701,151Z" fill="#99d3bc" stroke="#99d3bc" stroke-width="1.51"/><path d="M701,151L668,66L574,150Z" fill="#9ad5bb" stroke="#9ad5bb" stroke-width="1.51"/><path d="M574,150L577,40L529,150Z" fill="#a5d9b8" stroke="#a5d9b8" stroke-width="1.51"/><path d="M1006,127L911,146L931,240Z" fill="#81b8bb" stroke="#81b8bb" stroke-width="1.51"/><path d="M317,494L352,569L427,482Z" fill="#7dc2bd" stroke="#7dc2bd" stroke-width="1.51"/><path d="M331,417L430,401L318,341Z" fill="#8dd0bb" stroke="#8dd0bb" stroke-width="1.51"/><path d="M1117,491L1002,416L1002,503Z" fill="#3494bc" stroke="#3494bc" stroke-width="1.51"/><path d="M946,674L1041,639L1031,580Z" fill="#2283ba" stroke="#2283ba" stroke-width="1.51"/><path d="M1046,725L1041,639L946,674Z" fill="#237ab6" stroke="#237ab6" stroke-width="1.51"/><path d="M318,341L430,401L445,292Z" fill="#8cd0bb" stroke="#8cd0bb" stroke-width="1.51"/><path d="M583,861L693,844L570,768Z" fill="#4d84b0" stroke="#4d84b0" stroke-width="1.51"/><path d="M1007,305L1033,209L931,240Z" fill="#6aacba" stroke="#6aacba" stroke-width="1.51"/><path d="M1117,491L1002,503L1031,580Z" fill="#2d8dbb" stroke="#2d8dbb" stroke-width="1.51"/><path d="M693,844L751,849L737,751Z" fill="#3b80b2" stroke="#3b80b2" stroke-width="1.51"/><path d="M848,768L962,771L946,674Z" fill="#257bb5" stroke="#257bb5" stroke-width="1.51"/><path d="M331,417L317,494L427,482Z" fill="#82c9bd" stroke="#82c9bd" stroke-width="1.51"/><path d="M763,59L701,151L765,160Z" fill="#92cebd" stroke="#92cebd" stroke-width="1.51"/><path d="M914,865L962,771L848,768Z" fill="#2a73b2" stroke="#2a73b2" stroke-width="1.51"/><path d="M839,61L765,160L861,174Z" fill="#8ec7bc" stroke="#8ec7bc" stroke-width="1.51"/><path d="M1101,601L1117,491L1031,580Z" fill="#2985b9" stroke="#2985b9" stroke-width="1.51"/><path d="M1099,308L1033,209L1007,305Z" fill="#63a3b8" stroke="#63a3b8" stroke-width="1.51"/><path d="M907,83L839,61L861,174Z" fill="#90c3bb" stroke="#90c3bb" stroke-width="1.51"/><path d="M331,417L271,420L317,494Z" fill="#8dcfbd" stroke="#8dcfbd" stroke-width="1.51"/><path d="M358,215L318,341L445,292Z" fill="#9bd7b9" stroke="#9bd7b9" stroke-width="1.51"/><path d="M358,215L445,292L446,247Z" fill="#9bd7b9" stroke="#9bd7b9" stroke-width="1.51"/><path d="M751,849L823,858L848,768Z" fill="#3578b0" stroke="#3578b0" stroke-width="1.51"/><path d="M786,909L823,858L751,849Z" fill="#3872ae" stroke="#3872ae" stroke-width="1.51"/><path d="M1041,639L1101,601L1031,580Z" fill="#2281b9" stroke="#2281b9" stroke-width="1.51"/><path d="M1097,692L1101,601L1041,639Z" fill="#2378b5" stroke="#2378b5" stroke-width="1.51"/><path d="M1087,384L1099,308L1007,305Z" fill="#549cb8" stroke="#549cb8" stroke-width="1.51"/><path d="M1183,404L1099,308L1087,384Z" fill="#4d93b6" stroke="#4d93b6" stroke-width="1.51"/><path d="M907,83L861,174L911,146Z" fill="#8ac0bc" stroke="#8ac0bc" stroke-width="1.51"/><path d="M505,831L583,861L570,768Z" fill="#5687af" stroke="#5687af" stroke-width="1.51"/><path d="M682,931L786,909L751,849Z" fill="#3d73ad" stroke="#3d73ad" stroke-width="1.51"/><path d="M505,831L570,768L510,774Z" fill="#588cb0" stroke="#588cb0" stroke-width="1.51"/><path d="M405,668L394,738L510,774Z" fill="#699cb4" stroke="#699cb4" stroke-width="1.51"/><path d="M336,657L394,738L405,668Z" fill="#75a7b6" stroke="#75a7b6" stroke-width="1.51"/><path d="M336,657L405,668L352,569Z" fill="#78b2ba" stroke="#78b2ba" stroke-width="1.51"/><path d="M243,640L336,657L352,569Z" fill="#82b7ba" stroke="#82b7ba" stroke-width="1.51"/><path d="M389,847L505,831L510,774Z" fill="#638cae" stroke="#638cae" stroke-width="1.51"/><path d="M1006,127L907,83L911,146Z" fill="#8bbdba" stroke="#8bbdba" stroke-width="1.51"/><path d="M962,771L1046,725L946,674Z" fill="#2376b4" stroke="#2376b4" stroke-width="1.51"/><path d="M1003,840L1046,725L962,771Z" fill="#256caf" stroke="#256caf" stroke-width="1.51"/><path d="M390,125L358,215L446,247Z" fill="#abddb7" stroke="#abddb7" stroke-width="1.51"/><path d="M390,125L446,247L529,150Z" fill="#a7dbb8" stroke="#a7dbb8" stroke-width="1.51"/><path d="M318,341L271,420L331,417Z" fill="#95d3bb" stroke="#95d3bb" stroke-width="1.51"/><path d="M219,557L243,640L352,569Z" fill="#89bebb" stroke="#89bebb" stroke-width="1.51"/><path d="M249,294L271,420L318,341Z" fill="#9fd7b9" stroke="#9fd7b9" stroke-width="1.51"/><path d="M668,66L577,40L574,150Z" fill="#a4d8ba" stroke="#a4d8ba" stroke-width="1.51"/><path d="M693,-16L577,40L668,66Z" fill="#a8d9ba" stroke="#a8d9ba" stroke-width="1.51"/><path d="M693,-16L668,66L763,59Z" fill="#a1d5bc" stroke="#a1d5bc" stroke-width="1.51"/><path d="M1033,209L1006,127L931,240Z" fill="#7ab1b9" stroke="#7ab1b9" stroke-width="1.51"/><path d="M1039,75L1006,127L1101,137Z" fill="#8bafb5" stroke="#8bafb5" stroke-width="1.51"/><path d="M1046,725L1097,692L1041,639Z" fill="#2373b2" stroke="#2373b2" stroke-width="1.51"/><path d="M1196,517L1183,404L1117,491Z" fill="#3685b6" stroke="#3685b6" stroke-width="1.51"/><path d="M823,858L914,865L848,768Z" fill="#3073b0" stroke="#3073b0" stroke-width="1.51"/><path d="M1046,725L1103,756L1097,692Z" fill="#236aae" stroke="#236aae" stroke-width="1.51"/><path d="M825,938L914,865L823,858Z" fill="#336bac" stroke="#336bac" stroke-width="1.51"/><path d="M271,420L257,479L317,494Z" fill="#8fcdbd" stroke="#8fcdbd" stroke-width="1.51"/><path d="M577,40L491,62L529,150Z" fill="#abdcb8" stroke="#abdcb8" stroke-width="1.51"/><path d="M682,931L751,849L693,844Z" fill="#4078af" stroke="#4078af" stroke-width="1.51"/><path d="M583,861L682,931L693,844Z" fill="#497aad" stroke="#497aad" stroke-width="1.51"/><path d="M505,831L566,900L583,861Z" fill="#5781ac" stroke="#5781ac" stroke-width="1.51"/><path d="M512,935L566,900L505,831Z" fill="#5a7eaa" stroke="#5a7eaa" stroke-width="1.51"/><path d="M429,84L390,125L529,150Z" fill="#b2e0b6" stroke="#b2e0b6" stroke-width="1.51"/><path d="M358,215L249,294L318,341Z" fill="#a5dbb8" stroke="#a5dbb8" stroke-width="1.51"/><path d="M491,62L429,84L529,150Z" fill="#b0dfb7" stroke="#b0dfb7" stroke-width="1.51"/><path d="M566,900L682,931L583,861Z" fill="#507aab" stroke="#507aab" stroke-width="1.51"/><path d="M1117,491L1183,404L1087,384Z" fill="#3f8db7" stroke="#3f8db7" stroke-width="1.51"/><path d="M1099,308L1135,227L1033,209Z" fill="#6aa0b5" stroke="#6aa0b5" stroke-width="1.51"/><path d="M1196,517L1117,491L1101,601Z" fill="#2d81b6" stroke="#2d81b6" stroke-width="1.51"/><path d="M746,-35L693,-16L763,59Z" fill="#a4d5bc" stroke="#a4d5bc" stroke-width="1.51"/><path d="M577,40L521,-29L491,62Z" fill="#b3dfb7" stroke="#b3dfb7" stroke-width="1.51"/><path d="M491,62L422,-31L429,84Z" fill="#bde4b6" stroke="#bde4b6" stroke-width="1.51"/><path d="M746,-35L763,59L839,61Z" fill="#9ecfbc" stroke="#9ecfbc" stroke-width="1.51"/><path d="M746,-35L839,61L860,-43Z" fill="#a2cebb" stroke="#a2cebb" stroke-width="1.51"/><path d="M944,902L1003,840L914,865Z" fill="#2a65ac" stroke="#2a65ac" stroke-width="1.51"/><path d="M914,865L1003,840L962,771Z" fill="#286aae" stroke="#286aae" stroke-width="1.51"/><path d="M1184,226L1135,227L1099,308Z" fill="#6899b2" stroke="#6899b2" stroke-width="1.51"/><path d="M1189,607L1196,517L1101,601Z" fill="#2879b4" stroke="#2879b4" stroke-width="1.51"/><path d="M219,222L249,294L358,215Z" fill="#b3e0b7" stroke="#b3e0b7" stroke-width="1.51"/><path d="M271,420L184,482L257,479Z" fill="#94d0bc" stroke="#94d0bc" stroke-width="1.51"/><path d="M786,909L825,938L823,858Z" fill="#376dab" stroke="#376dab" stroke-width="1.51"/><path d="M739,985L825,938L786,909Z" fill="#356ba3" stroke="#356ba3" stroke-width="1.51"/><path d="M1184,659L1189,607L1101,601Z" fill="#2473b2" stroke="#2473b2" stroke-width="1.51"/><path d="M1082,817L1103,756L1046,725Z" fill="#2464ab" stroke="#2464ab" stroke-width="1.51"/><path d="M860,-43L839,61L914,-38Z" fill="#9fc9bb" stroke="#9fc9bb" stroke-width="1.51"/><path d="M825,938L944,902L914,865Z" fill="#3066ab" stroke="#3066ab" stroke-width="1.51"/><path d="M1003,840L1082,817L1046,725Z" fill="#2665ac" stroke="#2665ac" stroke-width="1.51"/><path d="M394,738L389,847L510,774Z" fill="#6a93b0" stroke="#6a93b0" stroke-width="1.51"/><path d="M336,657L311,777L394,738Z" fill="#7aa1b3" stroke="#7aa1b3" stroke-width="1.51"/><path d="M219,557L352,569L317,494Z" fill="#89c3bc" stroke="#89c3bc" stroke-width="1.51"/><path d="M219,557L317,494L257,479Z" fill="#8fc8bc" stroke="#8fc8bc" stroke-width="1.51"/><path d="M184,482L219,557L257,479Z" fill="#93cabc" stroke="#93cabc" stroke-width="1.51"/><path d="M356,62L330,134L390,125Z" fill="#c1e6b5" stroke="#c1e6b5" stroke-width="1.51"/><path d="M390,125L330,134L358,215Z" fill="#bae3b6" stroke="#bae3b6" stroke-width="1.51"/><path d="M1184,659L1101,601L1097,692Z" fill="#2372b2" stroke="#2372b2" stroke-width="1.51"/><path d="M311,777L389,847L394,738Z" fill="#7696af" stroke="#7696af" stroke-width="1.51"/><path d="M591,-85L563,-21L693,-16Z" fill="#b2ddbe" stroke="#b2ddbe" stroke-width="1.51"/><path d="M693,-16L563,-21L577,40Z" fill="#b0ddb9" stroke="#b0ddb9" stroke-width="1.51"/><path d="M429,84L356,62L390,125Z" fill="#bfe5b6" stroke="#bfe5b6" stroke-width="1.51"/><path d="M1006,127L1039,75L907,83Z" fill="#8eb8b9" stroke="#8eb8b9" stroke-width="1.51"/><path d="M1101,137L1006,127L1033,209Z" fill="#83adb6" stroke="#83adb6" stroke-width="1.51"/><path d="M1135,227L1101,137L1033,209Z" fill="#7aa4b4" stroke="#7aa4b4" stroke-width="1.51"/><path d="M243,640L311,777L336,657Z" fill="#83abb5" stroke="#83abb5" stroke-width="1.51"/><path d="M1178,748L1184,659L1097,692Z" fill="#2367ac" stroke="#2367ac" stroke-width="1.51"/><path d="M399,907L512,935L505,831Z" fill="#6481a9" stroke="#6481a9" stroke-width="1.51"/><path d="M569,1039L672,1022L682,931Z" fill="#406e97" stroke="#406e97" stroke-width="1.51"/><path d="M682,931L739,985L786,909Z" fill="#396fa4" stroke="#396fa4" stroke-width="1.51"/><path d="M1103,756L1178,748L1097,692Z" fill="#2365ab" stroke="#2365ab" stroke-width="1.51"/><path d="M1026,920L1082,817L1003,840Z" fill="#285da8" stroke="#285da8" stroke-width="1.51"/><path d="M563,-21L521,-29L577,40Z" fill="#b5e0b8" stroke="#b5e0b8" stroke-width="1.51"/><path d="M591,-85L521,-29L563,-21Z" fill="#b7e0bd" stroke="#b7e0bd" stroke-width="1.51"/><path d="M672,1022L739,985L682,931Z" fill="#3a6d9c" stroke="#3a6d9c" stroke-width="1.51"/><path d="M825,938L834,997L944,902Z" fill="#2e64a2" stroke="#2e64a2" stroke-width="1.51"/><path d="M914,-38L839,61L907,83Z" fill="#99c5bb" stroke="#99c5bb" stroke-width="1.51"/><path d="M693,-101L591,-85L693,-16Z" fill="#afdbc3" stroke="#afdbc3" stroke-width="1.51"/><path d="M219,557L167,651L243,640Z" fill="#8fbbba" stroke="#8fbbba" stroke-width="1.51"/><path d="M141,432L184,482L271,420Z" fill="#9ad3bc" stroke="#9ad3bc" stroke-width="1.51"/><path d="M1282,397L1221,329L1183,404Z" fill="#4d86b1" stroke="#4d86b1" stroke-width="1.51"/><path d="M1183,404L1221,329L1099,308Z" fill="#528fb3" stroke="#528fb3" stroke-width="1.51"/><path d="M1135,227L1194,133L1101,137Z" fill="#7fa0b1" stroke="#7fa0b1" stroke-width="1.51"/><path d="M1282,397L1183,404L1285,502Z" fill="#4080b1" stroke="#4080b1" stroke-width="1.51"/><path d="M1183,404L1196,517L1285,502Z" fill="#387fb3" stroke="#387fb3" stroke-width="1.51"/><path d="M1221,329L1184,226L1099,308Z" fill="#5e93b2" stroke="#5e93b2" stroke-width="1.51"/><path d="M422,-31L356,62L429,84Z" fill="#c4e7b5" stroke="#c4e7b5" stroke-width="1.51"/><path d="M240,175L219,222L358,215Z" fill="#bce4b6" stroke="#bce4b6" stroke-width="1.51"/><path d="M1039,75L914,-38L907,83Z" fill="#96bfba" stroke="#96bfba" stroke-width="1.51"/><path d="M228,861L334,847L311,777Z" fill="#8395ab" stroke="#8395ab" stroke-width="1.51"/><path d="M311,777L334,847L389,847Z" fill="#7b92ad" stroke="#7b92ad" stroke-width="1.51"/><path d="M389,847L399,907L505,831Z" fill="#6b88ab" stroke="#6b88ab" stroke-width="1.51"/><path d="M334,847L399,907L389,847Z" fill="#758aaa" stroke="#758aaa" stroke-width="1.51"/><path d="M249,294L166,339L271,420Z" fill="#a4d9b9" stroke="#a4d9b9" stroke-width="1.51"/><path d="M240,175L358,215L330,134Z" fill="#bee5b5" stroke="#bee5b5" stroke-width="1.51"/><path d="M1176,821L1178,748L1103,756Z" fill="#235ba7" stroke="#235ba7" stroke-width="1.51"/><path d="M1285,502L1196,517L1294,579Z" fill="#3275b0" stroke="#3275b0" stroke-width="1.51"/><path d="M268,48L240,175L330,134Z" fill="#ccebb4" stroke="#ccebb4" stroke-width="1.51"/><path d="M944,902L1026,920L1003,840Z" fill="#2a5ea8" stroke="#2a5ea8" stroke-width="1.51"/><path d="M1082,817L1176,821L1103,756Z" fill="#255ba7" stroke="#255ba7" stroke-width="1.51"/><path d="M739,985L834,997L825,938Z" fill="#31669d" stroke="#31669d" stroke-width="1.51"/><path d="M139,253L249,294L219,222Z" fill="#b7e2b6" stroke="#b7e2b6" stroke-width="1.51"/><path d="M139,253L166,339L249,294Z" fill="#b0dfb7" stroke="#b0dfb7" stroke-width="1.51"/><path d="M1007,1017L1026,920L944,902Z" fill="#26579e" stroke="#26579e" stroke-width="1.51"/><path d="M521,-29L422,-31L491,62Z" fill="#bde4b6" stroke="#bde4b6" stroke-width="1.51"/><path d="M693,-101L693,-16L746,-35Z" fill="#a9d8c1" stroke="#a9d8c1" stroke-width="1.51"/><path d="M693,-101L746,-35L789,-96Z" fill="#a8d6c5" stroke="#a8d6c5" stroke-width="1.51"/><path d="M789,-96L746,-35L860,-43Z" fill="#a5d1c2" stroke="#a5d1c2" stroke-width="1.51"/><path d="M873,-108L789,-96L860,-43Z" fill="#a5cdc5" stroke="#a5cdc5" stroke-width="1.51"/><path d="M569,1039L566,900L512,935Z" fill="#52779e" stroke="#52779e" stroke-width="1.51"/><path d="M569,1039L682,931L566,900Z" fill="#4a749f" stroke="#4a749f" stroke-width="1.51"/><path d="M739,985L672,1022L834,997Z" fill="#316898" stroke="#316898" stroke-width="1.51"/><path d="M184,482L153,573L219,557Z" fill="#95c7bc" stroke="#95c7bc" stroke-width="1.51"/><path d="M243,640L225,766L311,777Z" fill="#87a5b2" stroke="#87a5b2" stroke-width="1.51"/><path d="M85,466L153,573L184,482Z" fill="#9ccdbc" stroke="#9ccdbc" stroke-width="1.51"/><path d="M356,62L268,48L330,134Z" fill="#cbeab4" stroke="#cbeab4" stroke-width="1.51"/><path d="M501,-104L422,-31L521,-29Z" fill="#c0e5bd" stroke="#c0e5bd" stroke-width="1.51"/><path d="M166,339L141,432L271,420Z" fill="#a1d7bb" stroke="#a1d7bb" stroke-width="1.51"/><path d="M423,1004L501,992L512,935Z" fill="#5a7899" stroke="#5a7899" stroke-width="1.51"/><path d="M167,651L225,766L243,640Z" fill="#8daeb5" stroke="#8daeb5" stroke-width="1.51"/><path d="M334,847L307,908L399,907Z" fill="#7a89a8" stroke="#7a89a8" stroke-width="1.51"/><path d="M399,907L423,1004L512,935Z" fill="#647d9f" stroke="#647d9f" stroke-width="1.51"/><path d="M1039,75L1032,-47L914,-38Z" fill="#9cbbb7" stroke="#9cbbb7" stroke-width="1.51"/><path d="M914,-38L873,-108L860,-43Z" fill="#a2c9c2" stroke="#a2c9c2" stroke-width="1.51"/><path d="M1101,137L1117,55L1039,75Z" fill="#8dabb3" stroke="#8dabb3" stroke-width="1.51"/><path d="M1194,133L1117,55L1101,137Z" fill="#89a4b1" stroke="#89a4b1" stroke-width="1.51"/><path d="M153,573L167,651L219,557Z" fill="#92c1bb" stroke="#92c1bb" stroke-width="1.51"/><path d="M1196,517L1189,607L1294,579Z" fill="#2c74b1" stroke="#2c74b1" stroke-width="1.51"/><path d="M1221,329L1263,298L1184,226Z" fill="#608eaf" stroke="#608eaf" stroke-width="1.51"/><path d="M1184,226L1194,133L1135,227Z" fill="#789ab0" stroke="#789ab0" stroke-width="1.51"/><path d="M1282,397L1263,298L1221,329Z" fill="#5486af" stroke="#5486af" stroke-width="1.51"/><path d="M1294,579L1189,607L1279,679Z" fill="#286aae" stroke="#286aae" stroke-width="1.51"/><path d="M1284,154L1194,133L1184,226Z" fill="#7e97ae" stroke="#7e97ae" stroke-width="1.51"/><path d="M1279,679L1189,607L1184,659Z" fill="#2669ae" stroke="#2669ae" stroke-width="1.51"/><path d="M1116,934L1176,821L1082,817Z" fill="#2653a3" stroke="#2653a3" stroke-width="1.51"/><path d="M959,-120L873,-108L914,-38Z" fill="#a1c6c5" stroke="#a1c6c5" stroke-width="1.51"/><path d="M789,-96L873,-108L693,-101Z" fill="#a8d3c8" stroke="#a8d3c8" stroke-width="1.51"/><path d="M501,992L569,1039L512,935Z" fill="#517497" stroke="#517497" stroke-width="1.51"/><path d="M672,1022L931,1030L834,997Z" fill="#2b6294" stroke="#2b6294" stroke-width="1.51"/><path d="M1279,679L1184,659L1178,748Z" fill="#2561aa" stroke="#2561aa" stroke-width="1.51"/><path d="M1285,502L1374,407L1282,397Z" fill="#417aaf" stroke="#417aaf" stroke-width="1.51"/><path d="M1106,-4L1039,75L1117,55Z" fill="#94adb3" stroke="#94adb3" stroke-width="1.51"/><path d="M1106,-4L1032,-47L1039,75Z" fill="#99b3b4" stroke="#99b3b4" stroke-width="1.51"/><path d="M591,-85L501,-104L521,-29Z" fill="#bae2c0" stroke="#bae2c0" stroke-width="1.51"/><path d="M693,-101L501,-104L591,-85Z" fill="#b6dfc5" stroke="#b6dfc5" stroke-width="1.51"/><path d="M338,-139L501,-104L693,-101Z" fill="#bfe5c5" stroke="#bfe5c5" stroke-width="1.51"/><path d="M228,861L307,908L334,847Z" fill="#838ea9" stroke="#838ea9" stroke-width="1.51"/><path d="M501,992L423,1004L569,1039Z" fill="#527492" stroke="#527492" stroke-width="1.51"/><path d="M308,-51L268,48L356,62Z" fill="#d4eeb3" stroke="#d4eeb3" stroke-width="1.51"/><path d="M182,142L139,253L219,222Z" fill="#c4e7b5" stroke="#c4e7b5" stroke-width="1.51"/><path d="M308,-51L356,62L422,-31Z" fill="#cfebb5" stroke="#cfebb5" stroke-width="1.51"/><path d="M182,142L219,222L240,175Z" fill="#c7e8b5" stroke="#c7e8b5" stroke-width="1.51"/><path d="M166,339L98,427L141,432Z" fill="#a6d9ba" stroke="#a6d9ba" stroke-width="1.51"/><path d="M1302,725L1279,679L1178,748Z" fill="#265aa7" stroke="#265aa7" stroke-width="1.51"/><path d="M1197,43L1106,-4L1117,55Z" fill="#94a7b0" stroke="#94a7b0" stroke-width="1.51"/><path d="M1026,920L1116,934L1082,817Z" fill="#2854a4" stroke="#2854a4" stroke-width="1.51"/><path d="M834,997L931,1030L944,902Z" fill="#275e9b" stroke="#275e9b" stroke-width="1.51"/><path d="M569,1039L931,1030L672,1022Z" fill="#306792" stroke="#306792" stroke-width="1.51"/><path d="M75,329L98,427L166,339Z" fill="#addcb9" stroke="#addcb9" stroke-width="1.51"/><path d="M141,432L85,466L184,482Z" fill="#9fd4bc" stroke="#9fd4bc" stroke-width="1.51"/><path d="M153,573L81,653L167,651Z" fill="#96bdb9" stroke="#96bdb9" stroke-width="1.51"/><path d="M307,1031L423,1004L399,907Z" fill="#6b7d97" stroke="#6b7d97" stroke-width="1.51"/><path d="M268,48L182,142L240,175Z" fill="#d0ecb4" stroke="#d0ecb4" stroke-width="1.51"/><path d="M1263,298L1296,247L1184,226Z" fill="#688ead" stroke="#688ead" stroke-width="1.51"/><path d="M1194,133L1197,43L1117,55Z" fill="#8da2af" stroke="#8da2af" stroke-width="1.51"/><path d="M1368,339L1296,247L1263,298Z" fill="#5e84ab" stroke="#5e84ab" stroke-width="1.51"/><path d="M1368,339L1263,298L1282,397Z" fill="#5481ad" stroke="#5481ad" stroke-width="1.51"/><path d="M1282,860L1302,725L1178,748Z" fill="#2551a2" stroke="#2551a2" stroke-width="1.51"/><path d="M1100,991L1116,934L1026,920Z" fill="#244e99" stroke="#244e99" stroke-width="1.51"/><path d="M98,427L85,466L141,432Z" fill="#a3d6bc" stroke="#a3d6bc" stroke-width="1.51"/><path d="M-38,423L85,466L98,427Z" fill="#a8d8bd" stroke="#a8d8bd" stroke-width="1.51"/><path d="M225,766L228,861L311,777Z" fill="#879aad" stroke="#879aad" stroke-width="1.51"/><path d="M307,908L307,1031L399,907Z" fill="#76839e" stroke="#76839e" stroke-width="1.51"/><path d="M185,849L228,861L225,766Z" fill="#8b97ab" stroke="#8b97ab" stroke-width="1.51"/><path d="M154,768L225,766L167,651Z" fill="#8fa8b2" stroke="#8fa8b2" stroke-width="1.51"/><path d="M931,1030L1007,1017L944,902Z" fill="#225898" stroke="#225898" stroke-width="1.51"/><path d="M873,-108L959,-120L693,-101Z" fill="#a6cec8" stroke="#a6cec8" stroke-width="1.51"/><path d="M1019,-96L959,-120L914,-38Z" fill="#a0c1c3" stroke="#a0c1c3" stroke-width="1.51"/><path d="M1019,-96L914,-38L1032,-47Z" fill="#9ebdbf" stroke="#9ebdbf" stroke-width="1.51"/><path d="M81,653L154,768L167,651Z" fill="#94b1b4" stroke="#94b1b4" stroke-width="1.51"/><path d="M1091,-107L1019,-96L1032,-47Z" fill="#9eb6bf" stroke="#9eb6bf" stroke-width="1.51"/><path d="M1106,-4L1091,-107L1032,-47Z" fill="#9cb2b9" stroke="#9cb2b9" stroke-width="1.51"/><path d="M1272,65L1197,43L1194,133Z" fill="#8d9cad" stroke="#8d9cad" stroke-width="1.51"/><path d="M1294,579L1347,568L1285,502Z" fill="#316eae" stroke="#316eae" stroke-width="1.51"/><path d="M1384,638L1347,568L1294,579Z" fill="#2c65ab" stroke="#2c65ab" stroke-width="1.51"/><path d="M268,48L147,62L182,142Z" fill="#d7efb3" stroke="#d7efb3" stroke-width="1.51"/><path d="M501,-104L397,-105L422,-31Z" fill="#c8e9bf" stroke="#c8e9bf" stroke-width="1.51"/><path d="M338,-139L397,-105L501,-104Z" fill="#ceebc3" stroke="#ceebc3" stroke-width="1.51"/><path d="M139,253L75,329L166,339Z" fill="#b4e0b7" stroke="#b4e0b7" stroke-width="1.51"/><path d="M76,230L75,329L139,253Z" fill="#bee4b6" stroke="#bee4b6" stroke-width="1.51"/><path d="M1279,679L1384,638L1294,579Z" fill="#2a62aa" stroke="#2a62aa" stroke-width="1.51"/><path d="M1282,860L1178,748L1176,821Z" fill="#2550a1" stroke="#2550a1" stroke-width="1.51"/><path d="M397,-105L308,-51L422,-31Z" fill="#d1edbc" stroke="#d1edbc" stroke-width="1.51"/><path d="M1296,247L1284,154L1184,226Z" fill="#7591ad" stroke="#7591ad" stroke-width="1.51"/><path d="M1355,172L1284,154L1296,247Z" fill="#798caa" stroke="#798caa" stroke-width="1.51"/><path d="M154,768L185,849L225,766Z" fill="#8d9dad" stroke="#8d9dad" stroke-width="1.51"/><path d="M228,861L260,934L307,908Z" fill="#858ba7" stroke="#858ba7" stroke-width="1.51"/><path d="M183,941L260,934L228,861Z" fill="#888ba5" stroke="#888ba5" stroke-width="1.51"/><path d="M55,560L81,653L153,573Z" fill="#9bc2ba" stroke="#9bc2ba" stroke-width="1.51"/><path d="M56,859L183,941L185,849Z" fill="#9191a8" stroke="#9191a8" stroke-width="1.51"/><path d="M55,560L153,573L85,466Z" fill="#9fcabb" stroke="#9fcabb" stroke-width="1.51"/><path d="M1116,934L1214,928L1176,821Z" fill="#26499e" stroke="#26499e" stroke-width="1.51"/><path d="M1007,1017L1100,991L1026,920Z" fill="#224f95" stroke="#224f95" stroke-width="1.51"/><path d="M308,-51L248,-14L268,48Z" fill="#dbf1b3" stroke="#dbf1b3" stroke-width="1.51"/><path d="M182,142L76,230L139,253Z" fill="#c8e9b5" stroke="#c8e9b5" stroke-width="1.51"/><path d="M-39,518L55,560L85,466Z" fill="#a3cfbe" stroke="#a3cfbe" stroke-width="1.51"/><path d="M1387,477L1374,407L1285,502Z" fill="#3d74ad" stroke="#3d74ad" stroke-width="1.51"/><path d="M1374,407L1368,339L1282,397Z" fill="#4e7bac" stroke="#4e7bac" stroke-width="1.51"/><path d="M68,133L76,230L182,142Z" fill="#d3edb4" stroke="#d3edb4" stroke-width="1.51"/><path d="M75,329L-38,423L98,427Z" fill="#aedcbc" stroke="#aedcbc" stroke-width="1.51"/><path d="M1428,245L1373,252L1368,339Z" fill="#617ea5" stroke="#617ea5" stroke-width="1.51"/><path d="M1347,568L1387,477L1285,502Z" fill="#376fad" stroke="#376fad" stroke-width="1.51"/><path d="M1430,483L1387,477L1347,568Z" fill="#366ba9" stroke="#366ba9" stroke-width="1.51"/><path d="M1204,-16L1106,-4L1197,43Z" fill="#97a5ae" stroke="#97a5ae" stroke-width="1.51"/><path d="M1168,-103L1091,-107L1106,-4Z" fill="#9cacb9" stroke="#9cacb9" stroke-width="1.51"/><path d="M1019,-96L1091,-107L959,-120Z" fill="#a0bac3" stroke="#a0bac3" stroke-width="1.51"/><path d="M1272,65L1204,-16L1197,43Z" fill="#949eac" stroke="#949eac" stroke-width="1.51"/><path d="M1394,82L1272,65L1284,154Z" fill="#8a91a9" stroke="#8a91a9" stroke-width="1.51"/><path d="M1284,154L1272,65L1194,133Z" fill="#8897ac" stroke="#8897ac" stroke-width="1.51"/><path d="M1190,1017L1214,928L1116,934Z" fill="#204291" stroke="#204291" stroke-width="1.51"/><path d="M172,2L147,62L268,48Z" fill="#ddf1b3" stroke="#ddf1b3" stroke-width="1.51"/><path d="M1368,339L1373,252L1296,247Z" fill="#6382a9" stroke="#6382a9" stroke-width="1.51"/><path d="M1428,245L1368,339L1475,321Z" fill="#597aa1" stroke="#597aa1" stroke-width="1.51"/><path d="M1302,725L1384,638L1279,679Z" fill="#2959a6" stroke="#2959a6" stroke-width="1.51"/><path d="M1387,757L1384,638L1302,725Z" fill="#2852a2" stroke="#2852a2" stroke-width="1.51"/><path d="M1214,928L1282,860L1176,821Z" fill="#26479d" stroke="#26479d" stroke-width="1.51"/><path d="M260,934L307,1031L307,908Z" fill="#7c859b" stroke="#7c859b" stroke-width="1.51"/><path d="M423,1004L307,1031L569,1039Z" fill="#5d768f" stroke="#5d768f" stroke-width="1.51"/><path d="M265,1033L307,1031L260,934Z" fill="#788192" stroke="#788192" stroke-width="1.51"/><path d="M248,-14L172,2L268,48Z" fill="#def1b2" stroke="#def1b2" stroke-width="1.51"/><path d="M308,-51L243,-89L248,-14Z" fill="#dff3b9" stroke="#dff3b9" stroke-width="1.51"/><path d="M397,-105L338,-139L308,-51Z" fill="#d7efc0" stroke="#d7efc0" stroke-width="1.51"/><path d="M959,-120L338,-139L693,-101Z" fill="#b1dcc9" stroke="#b1dcc9" stroke-width="1.51"/><path d="M1373,252L1355,172L1296,247Z" fill="#7186a9" stroke="#7186a9" stroke-width="1.51"/><path d="M147,62L68,133L182,142Z" fill="#daf0b3" stroke="#daf0b3" stroke-width="1.51"/><path d="M243,-89L172,2L248,-14Z" fill="#e2f4b6" stroke="#e2f4b6" stroke-width="1.51"/><path d="M56,859L185,849L154,768Z" fill="#939aab" stroke="#939aab" stroke-width="1.51"/><path d="M185,849L183,941L228,861Z" fill="#8c8fa8" stroke="#8c8fa8" stroke-width="1.51"/><path d="M1387,477L1430,483L1374,407Z" fill="#3c71a8" stroke="#3c71a8" stroke-width="1.51"/><path d="M1373,252L1428,245L1355,172Z" fill="#7082a5" stroke="#7082a5" stroke-width="1.51"/><path d="M1467,607L1430,483L1347,568Z" fill="#2f65a4" stroke="#2f65a4" stroke-width="1.51"/><path d="M65,88L68,133L147,62Z" fill="#dff2b2" stroke="#dff2b2" stroke-width="1.51"/><path d="M-26,306L-38,423L75,329Z" fill="#b5dfbe" stroke="#b5dfbe" stroke-width="1.51"/><path d="M338,-139L243,-89L308,-51Z" fill="#def2be" stroke="#def2be" stroke-width="1.51"/><path d="M77,-51L65,88L147,62Z" fill="#e7f5b2" stroke="#e7f5b2" stroke-width="1.51"/><path d="M183,941L265,1033L260,934Z" fill="#808598" stroke="#808598" stroke-width="1.51"/><path d="M307,1031L265,1033L569,1039Z" fill="#64788c" stroke="#64788c" stroke-width="1.51"/><path d="M81,653L46,754L154,768Z" fill="#97abb1" stroke="#97abb1" stroke-width="1.51"/><path d="M-25,639L46,754L81,653Z" fill="#9cb4b8" stroke="#9cb4b8" stroke-width="1.51"/><path d="M-25,639L81,653L55,560Z" fill="#9dc0bc" stroke="#9dc0bc" stroke-width="1.51"/><path d="M1258,-133L1168,-103L1204,-16Z" fill="#9ca3b7" stroke="#9ca3b7" stroke-width="1.51"/><path d="M1204,-16L1168,-103L1106,-4Z" fill="#9aa7b3" stroke="#9aa7b3" stroke-width="1.51"/><path d="M1091,-107L1258,-133L959,-120Z" fill="#9fafc1" stroke="#9fafc1" stroke-width="1.51"/><path d="M1299,-22L1204,-16L1272,65Z" fill="#969bab" stroke="#969bab" stroke-width="1.51"/><path d="M1214,928L1279,944L1282,860Z" fill="#263f97" stroke="#263f97" stroke-width="1.51"/><path d="M1100,991L1190,1017L1116,934Z" fill="#1f458f" stroke="#1f458f" stroke-width="1.51"/><path d="M1007,1017L1190,1017L1100,991Z" fill="#1d468b" stroke="#1d468b" stroke-width="1.51"/><path d="M931,1030L1190,1017L1007,1017Z" fill="#1d4c8c" stroke="#1d4c8c" stroke-width="1.51"/><path d="M1356,926L1345,832L1282,860Z" fill="#263d98" stroke="#263d98" stroke-width="1.51"/><path d="M1282,860L1345,832L1302,725Z" fill="#26489d" stroke="#26489d" stroke-width="1.51"/><path d="M1384,638L1467,607L1347,568Z" fill="#2960a5" stroke="#2960a5" stroke-width="1.51"/><path d="M1345,832L1387,757L1302,725Z" fill="#26499e" stroke="#26499e" stroke-width="1.51"/><path d="M1387,757L1429,641L1384,638Z" fill="#27539f" stroke="#27539f" stroke-width="1.51"/><path d="M-26,306L75,329L76,230Z" fill="#bee4b9" stroke="#bee4b9" stroke-width="1.51"/><path d="M77,-51L147,62L172,2Z" fill="#e7f6b2" stroke="#e7f6b2" stroke-width="1.51"/><path d="M1265,1007L1279,944L1214,928Z" fill="#203b8e" stroke="#203b8e" stroke-width="1.51"/><path d="M-26,306L76,230L-40,216Z" fill="#c7e8bc" stroke="#c7e8bc" stroke-width="1.51"/><path d="M1394,82L1299,-22L1272,65Z" fill="#9293a8" stroke="#9293a8" stroke-width="1.51"/><path d="M1475,321L1368,339L1374,407Z" fill="#5077a5" stroke="#5077a5" stroke-width="1.51"/><path d="M-38,423L-39,518L85,466Z" fill="#a7d5c2" stroke="#a7d5c2" stroke-width="1.51"/><path d="M0,149L76,230L68,133Z" fill="#d6efb5" stroke="#d6efb5" stroke-width="1.51"/><path d="M-39,518L-30,597L55,560Z" fill="#a2c9c1" stroke="#a2c9c1" stroke-width="1.51"/><path d="M-30,597L-25,639L55,560Z" fill="#9fc4c1" stroke="#9fc4c1" stroke-width="1.51"/><path d="M1394,82L1284,154L1355,172Z" fill="#858da8" stroke="#858da8" stroke-width="1.51"/><path d="M46,754L56,859L154,768Z" fill="#97a0ad" stroke="#97a0ad" stroke-width="1.51"/><path d="M183,941L136,1002L265,1033Z" fill="#818394" stroke="#818394" stroke-width="1.51"/><path d="M-33,775L56,859L46,754Z" fill="#99a1b1" stroke="#99a1b1" stroke-width="1.51"/><path d="M1430,483L1479,424L1374,407Z" fill="#3d70a3" stroke="#3d70a3" stroke-width="1.51"/><path d="M1518,494L1479,424L1430,483Z" fill="#346a9c" stroke="#346a9c" stroke-width="1.51"/><path d="M1429,641L1467,607L1384,638Z" fill="#265a9f" stroke="#265a9f" stroke-width="1.51"/><path d="M1551,663L1467,607L1429,641Z" fill="#225596" stroke="#225596" stroke-width="1.51"/><path d="M65,88L0,149L68,133Z" fill="#def2b5" stroke="#def2b5" stroke-width="1.51"/><path d="M-35,78L0,149L65,88Z" fill="#e2f4b7" stroke="#e2f4b7" stroke-width="1.51"/><path d="M1480,119L1394,82L1355,172Z" fill="#8387a1" stroke="#8387a1" stroke-width="1.51"/><path d="M1479,424L1475,321L1374,407Z" fill="#4873a0" stroke="#4873a0" stroke-width="1.51"/><path d="M1190,1017L1265,1007L1214,928Z" fill="#1e3c8a" stroke="#1e3c8a" stroke-width="1.51"/><path d="M1279,944L1356,926L1282,860Z" fill="#253a95" stroke="#253a95" stroke-width="1.51"/><path d="M1446,864L1474,736L1387,757Z" fill="#214192" stroke="#214192" stroke-width="1.51"/><path d="M1387,757L1474,736L1429,641Z" fill="#234c98" stroke="#234c98" stroke-width="1.51"/><path d="M1435,51L1394,82L1480,119Z" fill="#85889c" stroke="#85889c" stroke-width="1.51"/><path d="M0,149L-40,216L76,230Z" fill="#d2edba" stroke="#d2edba" stroke-width="1.51"/><path d="M-106,322L-98,421L-38,423Z" fill="#b4dec7" stroke="#b4dec7" stroke-width="1.51"/><path d="M-38,423L-101,476L-39,518Z" fill="#a9d6c7" stroke="#a9d6c7" stroke-width="1.51"/><path d="M46,940L136,1002L183,941Z" fill="#8b899a" stroke="#8b899a" stroke-width="1.51"/><path d="M1342,989L1356,926L1279,944Z" fill="#21348c" stroke="#21348c" stroke-width="1.51"/><path d="M243,-89L143,-101L172,2Z" fill="#e7f6ba" stroke="#e7f6ba" stroke-width="1.51"/><path d="M-110,142L-82,237L-40,216Z" fill="#d6efc2" stroke="#d6efc2" stroke-width="1.51"/><path d="M338,-139L143,-101L243,-89Z" fill="#e5f5c0" stroke="#e5f5c0" stroke-width="1.51"/><path d="M56,859L46,940L183,941Z" fill="#948ea4" stroke="#948ea4" stroke-width="1.51"/><path d="M-25,639L-33,775L46,754Z" fill="#9badb8" stroke="#9badb8" stroke-width="1.51"/><path d="M-92,644L-33,775L-25,639Z" fill="#9eb5bf" stroke="#9eb5bf" stroke-width="1.51"/><path d="M-92,644L-25,639L-30,597Z" fill="#a0c0c3" stroke="#a0c0c3" stroke-width="1.51"/><path d="M1385,-135L1258,-133L1299,-22Z" fill="#9b98b4" stroke="#9b98b4" stroke-width="1.51"/><path d="M1299,-22L1258,-133L1204,-16Z" fill="#9b9db2" stroke="#9b9db2" stroke-width="1.51"/><path d="M1168,-103L1258,-133L1091,-107Z" fill="#9da7bc" stroke="#9da7bc" stroke-width="1.51"/><path d="M959,-120L1258,-133L338,-139Z" fill="#a6cdcb" stroke="#a6cdcb" stroke-width="1.51"/><path d="M1479,424L1516,390L1475,321Z" fill="#457099" stroke="#457099" stroke-width="1.51"/><path d="M1467,607L1518,494L1430,483Z" fill="#2e649c" stroke="#2e649c" stroke-width="1.51"/><path d="M1569,573L1518,494L1467,607Z" fill="#265d95" stroke="#265d95" stroke-width="1.51"/><path d="M-106,322L-38,423L-26,306Z" fill="#b8e0c4" stroke="#b8e0c4" stroke-width="1.51"/><path d="M-114,557L-92,644L-30,597Z" fill="#a2c5c8" stroke="#a2c5c8" stroke-width="1.51"/><path d="M1518,494L1516,390L1479,424Z" fill="#376b98" stroke="#376b98" stroke-width="1.51"/><path d="M1480,119L1355,172L1428,245Z" fill="#7783a0" stroke="#7783a0" stroke-width="1.51"/><path d="M-98,421L-101,476L-38,423Z" fill="#acdac9" stroke="#acdac9" stroke-width="1.51"/><path d="M1446,864L1387,757L1345,832Z" fill="#253f96" stroke="#253f96" stroke-width="1.51"/><path d="M143,-101L77,-51L172,2Z" fill="#ebf7b7" stroke="#ebf7b7" stroke-width="1.51"/><path d="M11,947L46,940L56,859Z" fill="#968fa6" stroke="#968fa6" stroke-width="1.51"/><path d="M-114,557L-30,597L-39,518Z" fill="#a3cbc7" stroke="#a3cbc7" stroke-width="1.51"/><path d="M-110,142L-40,216L0,149Z" fill="#dbf1be" stroke="#dbf1be" stroke-width="1.51"/><path d="M-40,216L-82,237L-26,306Z" fill="#c8e9c0" stroke="#c8e9c0" stroke-width="1.51"/><path d="M1356,926L1446,864L1345,832Z" fill="#253794" stroke="#253794" stroke-width="1.51"/><path d="M1265,1007L1342,989L1279,944Z" fill="#1f3588" stroke="#1f3588" stroke-width="1.51"/><path d="M-82,237L-106,322L-26,306Z" fill="#c2e6c4" stroke="#c2e6c4" stroke-width="1.51"/><path d="M-98,421L-106,322L-101,476Z" fill="#b2ddca" stroke="#b2ddca" stroke-width="1.51"/><path d="M-101,476L-114,557L-39,518Z" fill="#a7d0c9" stroke="#a7d0c9" stroke-width="1.51"/><path d="M-106,322L-114,557L-101,476Z" fill="#acdacb" stroke="#acdacb" stroke-width="1.51"/><path d="M1394,82L1377,-41L1299,-22Z" fill="#9691a7" stroke="#9691a7" stroke-width="1.51"/><path d="M1480,119L1428,245L1545,149Z" fill="#748096" stroke="#748096" stroke-width="1.51"/><path d="M1435,51L1377,-41L1394,82Z" fill="#908ca1" stroke="#908ca1" stroke-width="1.51"/><path d="M-29,-44L-35,78L65,88Z" fill="#ebf7b8" stroke="#ebf7b8" stroke-width="1.51"/><path d="M1478,912L1446,864L1356,926Z" fill="#21318b" stroke="#21318b" stroke-width="1.51"/><path d="M11,947L56,987L46,940Z" fill="#918b9d" stroke="#918b9d" stroke-width="1.51"/><path d="M46,940L56,987L136,1002Z" fill="#8d8996" stroke="#8d8996" stroke-width="1.51"/><path d="M136,1002L-12,1030L265,1033Z" fill="#82838d" stroke="#82838d" stroke-width="1.51"/><path d="M-39,842L56,859L-33,775Z" fill="#9a9db1" stroke="#9a9db1" stroke-width="1.51"/><path d="M-114,780L-39,842L-33,775Z" fill="#9ca2b8" stroke="#9ca2b8" stroke-width="1.51"/><path d="M1563,252L1428,245L1475,321Z" fill="#5b7897" stroke="#5b7897" stroke-width="1.51"/><path d="M1435,51L1469,-17L1377,-41Z" fill="#918c9d" stroke="#918c9d" stroke-width="1.51"/><path d="M143,-101L88,-114L77,-51Z" fill="#f0f9bc" stroke="#f0f9bc" stroke-width="1.51"/><path d="M77,-51L-29,-44L65,88Z" fill="#eff9b4" stroke="#eff9b4" stroke-width="1.51"/><path d="M338,-139L88,-114L143,-101Z" fill="#eaf7c1" stroke="#eaf7c1" stroke-width="1.51"/><path d="M-39,842L11,947L56,859Z" fill="#9994ad" stroke="#9994ad" stroke-width="1.51"/><path d="M1569,573L1559,316L1518,494Z" fill="#2f6692" stroke="#2f6692" stroke-width="1.51"/><path d="M1518,494L1559,316L1516,390Z" fill="#3d6c93" stroke="#3d6c93" stroke-width="1.51"/><path d="M1516,390L1559,316L1475,321Z" fill="#4a7194" stroke="#4a7194" stroke-width="1.51"/><path d="M1474,736L1551,663L1429,641Z" fill="#214e93" stroke="#214e93" stroke-width="1.51"/><path d="M1557,736L1551,663L1474,736Z" fill="#1c468a" stroke="#1c468a" stroke-width="1.51"/><path d="M1551,663L1569,573L1467,607Z" fill="#1f5692" stroke="#1f5692" stroke-width="1.51"/><path d="M1559,316L1563,252L1475,321Z" fill="#517291" stroke="#517291" stroke-width="1.51"/><path d="M1569,573L1563,252L1559,316Z" fill="#3f6b8e" stroke="#3f6b8e" stroke-width="1.51"/><path d="M-104,50L-110,142L-35,78Z" fill="#e8f6c0" stroke="#e8f6c0" stroke-width="1.51"/><path d="M-35,78L-110,142L0,149Z" fill="#e2f4bd" stroke="#e2f4bd" stroke-width="1.51"/><path d="M-82,237L-110,142L-106,322Z" fill="#ceecc4" stroke="#ceecc4" stroke-width="1.51"/><path d="M-106,322L-110,142L-114,557Z" fill="#bbe2c9" stroke="#bbe2c9" stroke-width="1.51"/><path d="M-39,842L-111,944L11,947Z" fill="#9991af" stroke="#9991af" stroke-width="1.51"/><path d="M-92,644L-114,780L-33,775Z" fill="#9eadbe" stroke="#9eadbe" stroke-width="1.51"/><path d="M-114,557L-114,780L-92,644Z" fill="#a1bbc6" stroke="#a1bbc6" stroke-width="1.51"/><path d="M1551,663L1557,736L1569,573Z" fill="#1b4d8a" stroke="#1b4d8a" stroke-width="1.51"/><path d="M1518,862L1557,736L1474,736Z" fill="#1b3d87" stroke="#1b3d87" stroke-width="1.51"/><path d="M1518,862L1474,736L1446,864Z" fill="#1e3989" stroke="#1e3989" stroke-width="1.51"/><path d="M1461,1000L1478,912L1356,926Z" fill="#1d2d82" stroke="#1d2d82" stroke-width="1.51"/><path d="M1563,252L1545,149L1428,245Z" fill="#677a92" stroke="#677a92" stroke-width="1.51"/><path d="M1480,119L1516,79L1435,51Z" fill="#828596" stroke="#828596" stroke-width="1.51"/><path d="M1545,149L1516,79L1480,119Z" fill="#7b8191" stroke="#7b8191" stroke-width="1.51"/><path d="M4,-140L-29,-44L77,-51Z" fill="#f4fbc0" stroke="#f4fbc0" stroke-width="1.51"/><path d="M1516,79L1469,-17L1435,51Z" fill="#888797" stroke="#888797" stroke-width="1.51"/><path d="M1377,-41L1385,-135L1299,-22Z" fill="#9a93ae" stroke="#9a93ae" stroke-width="1.51"/><path d="M1475,-95L1385,-135L1377,-41Z" fill="#968faa" stroke="#968faa" stroke-width="1.51"/><path d="M1258,-133L1385,-135L338,-139Z" fill="#a2bec8" stroke="#a2bec8" stroke-width="1.51"/><path d="M1478,912L1518,862L1446,864Z" fill="#1e3185" stroke="#1e3185" stroke-width="1.51"/><path d="M-114,780L-114,848L-39,842Z" fill="#9d9eb9" stroke="#9d9eb9" stroke-width="1.51"/><path d="M11,947L-12,1030L56,987Z" fill="#8e8999" stroke="#8e8999" stroke-width="1.51"/><path d="M-101,-16L-104,50L-35,78Z" fill="#eff9bf" stroke="#eff9bf" stroke-width="1.51"/><path d="M-96,1004L-12,1030L11,947Z" fill="#8e889c" stroke="#8e889c" stroke-width="1.51"/><path d="M56,987L-12,1030L136,1002Z" fill="#8a8691" stroke="#8a8691" stroke-width="1.51"/><path d="M265,1033L-12,1030L569,1039Z" fill="#747d8b" stroke="#747d8b" stroke-width="1.51"/><path d="M1478,912L1533,940L1518,862Z" fill="#1c2c80" stroke="#1c2c80" stroke-width="1.51"/><path d="M1342,989L1461,1000L1356,926Z" fill="#1e2d83" stroke="#1e2d83" stroke-width="1.51"/><path d="M1265,1007L1461,1000L1342,989Z" fill="#1c2d81" stroke="#1c2d81" stroke-width="1.51"/><path d="M1543,1007L1461,1000L1265,1007Z" fill="#182977" stroke="#182977" stroke-width="1.51"/><path d="M-29,-44L-101,-16L-35,78Z" fill="#f2fabd" stroke="#f2fabd" stroke-width="1.51"/><path d="M88,-114L4,-140L77,-51Z" fill="#f4fbc0" stroke="#f4fbc0" stroke-width="1.51"/><path d="M338,-139L4,-140L88,-114Z" fill="#eff9c2" stroke="#eff9c2" stroke-width="1.51"/><path d="M-109,-115L-101,-16L-29,-44Z" fill="#f7fcc6" stroke="#f7fcc6" stroke-width="1.51"/><path d="M-104,50L-109,-115L-110,142Z" fill="#f1fac2" stroke="#f1fac2" stroke-width="1.51"/><path d="M1469,-17L1475,-95L1377,-41Z" fill="#928ca1" stroke="#928ca1" stroke-width="1.51"/><path d="M1558,-39L1475,-95L1469,-17Z" fill="#8c8897" stroke="#8c8897" stroke-width="1.51"/><path d="M1558,-39L1469,-17L1516,79Z" fill="#888590" stroke="#888590" stroke-width="1.51"/><path d="M1461,1000L1533,940L1478,912Z" fill="#182a79" stroke="#182a79" stroke-width="1.51"/><path d="M1518,862L1533,940L1557,736Z" fill="#1b3380" stroke="#1b3380" stroke-width="1.51"/><path d="M-114,848L-111,944L-39,842Z" fill="#9c96b5" stroke="#9c96b5" stroke-width="1.51"/><path d="M-111,944L-96,1004L11,947Z" fill="#938ba4" stroke="#938ba4" stroke-width="1.51"/><path d="M1567,-95L1558,-39L1563,252Z" fill="#80818a" stroke="#80818a" stroke-width="1.51"/><path d="M1563,252L1558,-39L1545,149Z" fill="#767e8b" stroke="#767e8b" stroke-width="1.51"/><path d="M1545,149L1558,-39L1516,79Z" fill="#7f828d" stroke="#7f828d" stroke-width="1.51"/><path d="M1461,1000L1543,1007L1533,940Z" fill="#14266f" stroke="#14266f" stroke-width="1.51"/><path d="M1533,940L1543,1007L1557,736Z" fill="#192c7c" stroke="#192c7c" stroke-width="1.51"/><path d="M1557,736L1543,1007L1569,573Z" fill="#193c81" stroke="#193c81" stroke-width="1.51"/><path d="M1190,1017L1543,1007L1265,1007Z" fill="#1b2f80" stroke="#1b2f80" stroke-width="1.51"/><path d="M931,1030L1543,1007L1190,1017Z" fill="#1b3983" stroke="#1b3983" stroke-width="1.51"/><path d="M4,-140L-109,-115L-29,-44Z" fill="#f8fcc9" stroke="#f8fcc9" stroke-width="1.51"/><path d="M-101,-16L-109,-115L-104,50Z" fill="#f6fcc5" stroke="#f6fcc5" stroke-width="1.51"/><path d="M-110,142L-109,-115L-114,557Z" fill="#d7efc4" stroke="#d7efc4" stroke-width="1.51"/><path d="M1558,-39L1567,-95L1475,-95Z" fill="#8b8696" stroke="#8b8696" stroke-width="1.51"/><path d="M1475,-95L1567,-95L1385,-135Z" fill="#918ba2" stroke="#918ba2" stroke-width="1.51"/><path d="M1569,573L1567,-95L1563,252Z" fill="#5b758b" stroke="#5b758b" stroke-width="1.51"/></svg>